<svg width="23" height="19" viewBox="0 0 23 19" fill="none" xmlns="http://www.w3.org/2000/svg">
<path d="M5.26074 7.8125H13.8545V9.375H5.26074V7.8125ZM5.26074 11.7188H15.417V13.2812H5.26074V11.7188Z" fill="white"/>
<path d="M20.8857 0H2.13574C1.72134 0 1.32391 0.16462 1.03089 0.457646C0.737862 0.750671 0.573242 1.1481 0.573242 1.5625V17.1875C0.573242 17.6019 0.737862 17.9993 1.03089 18.2924C1.32391 18.5854 1.72134 18.75 2.13574 18.75H20.8857C21.3001 18.75 21.6976 18.5854 21.9906 18.2924C22.2836 17.9993 22.4482 17.6019 22.4482 17.1875V1.5625C22.4482 1.1481 22.2836 0.750671 21.9906 0.457646C21.6976 0.16462 21.3001 0 20.8857 0V0ZM20.8857 1.5625V3.125H2.13574V1.5625H20.8857ZM2.13574 17.1875V4.6875H20.8857V17.1875H2.13574Z" fill="white"/>
</svg>
