<svg width="16" height="16" viewBox="0 0 19 16" fill="none" xmlns="http://www.w3.org/2000/svg">
<path d="M8.80898 7.79944C8.40899 7.69944 8.00898 7.49944 7.70898 7.19944C7.40898 7.09944 7.30898 6.79944 7.30898 6.59944C7.30898 6.39944 7.40898 6.09944 7.60898 5.99944C7.90898 5.79944 8.20898 5.59944 8.50898 5.69944C9.10898 5.69944 9.60898 5.99944 9.90898 6.39944L10.809 5.19944C10.509 4.89944 10.209 4.69944 9.90898 4.49944C9.60898 4.29944 9.20898 4.19944 8.80898 4.19944V2.79944H7.60898V4.19944C7.10898 4.29944 6.60898 4.59944 6.20898 4.99944C5.80898 5.49944 5.50898 6.09944 5.60898 6.69944C5.60898 7.29944 5.80898 7.89944 6.20898 8.29944C6.70898 8.79944 7.40898 9.09944 8.00898 9.39944C8.30898 9.49944 8.70898 9.69944 9.00898 9.89944C9.20898 10.0994 9.30898 10.3994 9.30898 10.6994C9.30898 10.9994 9.20898 11.2994 9.00898 11.5994C8.70898 11.8994 8.30898 11.9994 8.00898 11.9994C7.60898 11.9994 7.10898 11.8994 6.80898 11.5994C6.50898 11.3994 6.20898 11.0994 6.00898 10.7994L5.00898 11.8994C5.30898 12.2994 5.60898 12.5994 6.00898 12.8994C6.50898 13.1994 7.10898 13.4994 7.70898 13.4994V14.7994H8.80898V13.2994C9.40899 13.1994 9.90899 12.8994 10.309 12.4994C10.809 11.9994 11.109 11.1994 11.109 10.4994C11.109 9.89944 10.909 9.19944 10.409 8.79944C9.90898 8.29944 9.40899 7.99944 8.80898 7.79944ZM8.20898 0.799438C3.80898 0.799438 0.208984 4.39944 0.208984 8.79944C0.208984 13.1994 3.80898 16.7994 8.20898 16.7994C12.609 16.7994 16.209 13.1994 16.209 8.79944C16.209 4.39944 12.609 0.799438 8.20898 0.799438ZM8.20898 15.6994C4.40898 15.6994 1.30898 12.5994 1.30898 8.79944C1.30898 4.99944 4.40898 1.89944 8.20898 1.89944C12.009 1.89944 15.109 4.99944 15.109 8.79944C15.109 12.5994 12.009 15.6994 8.20898 15.6994Z" fill="#0CB0E2"/>
</svg>
