<svg width="16" height="21" viewBox="0 0 16 21" fill="none" xmlns="http://www.w3.org/2000/svg">
<path d="M14.8571 0H1.14286C0.839753 0 0.549062 0.120408 0.334735 0.334735C0.120408 0.549062 0 0.839753 0 1.14286V19.4286C0 19.7317 0.120408 20.0224 0.334735 20.2367C0.549062 20.451 0.839753 20.5714 1.14286 20.5714H14.8571C15.1602 20.5714 15.4509 20.451 15.6653 20.2367C15.8796 20.0224 16 19.7317 16 19.4286V1.14286C16 0.839753 15.8796 0.549062 15.6653 0.334735C15.4509 0.120408 15.1602 0 14.8571 0ZM13.7143 18.2857H2.28571V2.28571H13.7143V18.2857ZM11.4286 4.57143H4.57143V6.85714H11.4286V4.57143ZM11.4286 13.7143H4.57143V16H11.4286V13.7143ZM11.4286 9.14286H4.57143V11.4286H11.4286V9.14286Z" fill="white"/>
</svg>
