<svg width="26" height="26" viewBox="0 0 33 28" fill="none" xmlns="http://www.w3.org/2000/svg">
<path d="M32.9349 10.7375L32.0802 9.2445C32.0418 9.17869 31.9789 9.13075 31.9052 9.11116C31.8316 9.09156 31.7532 9.1019 31.6871 9.13993L29.8588 10.2074L27.0351 2.41073C26.886 1.94551 26.593 1.5397 26.1982 1.2519C25.8035 0.964102 25.3275 0.809204 24.8389 0.809571H9.21322C7.96186 0.809571 6.85115 1.61736 6.46528 2.81102L3.77505 10.211L1.94309 9.14353C1.87704 9.10551 1.79864 9.09517 1.72499 9.11476C1.65134 9.13436 1.58844 9.1823 1.55001 9.24811L0.695342 10.7375C0.616006 10.8745 0.662886 11.0476 0.799923 11.127L2.97808 12.3963L2.45517 13.8388C2.4119 13.9542 2.39026 14.0768 2.39026 14.1994V26.7563C2.39026 27.3225 2.8158 27.7804 3.3387 27.7804H5.7765C6.22006 27.7804 6.60593 27.4451 6.69969 26.9763L6.97737 25.6167H26.6529L26.9305 26.9763C27.0279 27.4451 27.4102 27.7804 27.8537 27.7804H30.2915C30.8144 27.7804 31.24 27.3225 31.24 26.7563V14.1994C31.24 14.0768 31.2183 13.9542 31.1751 13.8388L30.6522 12.3963L32.8267 11.127C32.8922 11.0891 32.9402 11.0272 32.9604 10.9543C32.9806 10.8815 32.9715 10.8036 32.9349 10.7375ZM7.87171 18.224C7.07473 18.224 6.42922 17.5785 6.42922 16.7815C6.42922 15.9845 7.07473 15.339 7.87171 15.339C8.66868 15.339 9.31419 15.9845 9.31419 16.7815C9.31419 17.5785 8.66868 18.224 7.87171 18.224ZM21.8638 20.9286C21.8638 21.0873 21.734 21.2171 21.5753 21.2171H12.0549C11.8962 21.2171 11.7664 21.0873 11.7664 20.9286V17.8994C11.7664 17.7407 11.8962 17.6109 12.0549 17.6109H13.4974C13.6561 17.6109 13.7859 17.7407 13.7859 17.8994V19.1977H19.8443V17.8994C19.8443 17.7407 19.9742 17.6109 20.1328 17.6109H21.5753C21.734 17.6109 21.8638 17.7407 21.8638 17.8994V20.9286ZM25.7585 18.224C24.9616 18.224 24.316 17.5785 24.316 16.7815C24.316 15.9845 24.9616 15.339 25.7585 15.339C26.5555 15.339 27.201 15.9845 27.201 16.7815C27.201 17.5785 26.5555 18.224 25.7585 18.224ZM6.28497 10.9034L8.90669 3.69454L8.92472 3.64766L8.93915 3.60078C8.97882 3.48178 9.087 3.40244 9.21322 3.40244H24.6334L27.3525 10.9034H6.28497Z" fill="#D1D1D1"/>
</svg>
