<svg width="38" height="38" viewBox="0 0 38 38" fill="none" xmlns="http://www.w3.org/2000/svg">
<path d="M24.4978 14.7294C24.3533 14.3033 23.9489 14 23.4722 14H15.5278C15.0511 14 14.6539 14.3033 14.5022 14.7294L13 19.0556V24.8333C13 25.2306 13.325 25.5556 13.7222 25.5556H14.4444C14.8417 25.5556 15.1667 25.2306 15.1667 24.8333V24.1111H23.8333V24.8333C23.8333 25.2306 24.1583 25.5556 24.5556 25.5556H25.2778C25.675 25.5556 26 25.2306 26 24.8333V19.0556L24.4978 14.7294ZM15.5278 21.9444C14.9283 21.9444 14.4444 21.4606 14.4444 20.8611C14.4444 20.2617 14.9283 19.7778 15.5278 19.7778C16.1272 19.7778 16.6111 20.2617 16.6111 20.8611C16.6111 21.4606 16.1272 21.9444 15.5278 21.9444ZM23.4722 21.9444C22.8728 21.9444 22.3889 21.4606 22.3889 20.8611C22.3889 20.2617 22.8728 19.7778 23.4722 19.7778C24.0717 19.7778 24.5556 20.2617 24.5556 20.8611C24.5556 21.4606 24.0717 21.9444 23.4722 21.9444ZM14.4444 18.3333L15.5278 15.0833H23.4722L24.5556 18.3333H14.4444Z" fill="#979EA4"/>
</svg>
