<svg width="16" height="16" viewBox="0 0 16 16" fill="none" xmlns="http://www.w3.org/2000/svg">
<path d="M1.43309 15.7824C1.17293 15.7823 0.918636 15.7051 0.702343 15.5606C0.48605 15.416 0.317474 15.2106 0.217925 14.9702C0.118376 14.7299 0.092323 14.4654 0.143061 14.2102C0.1938 13.9551 0.319051 13.7207 0.50298 13.5367L13.6587 0.381015C13.9068 0.141374 14.2391 0.00877106 14.584 0.0117685C14.929 0.0147659 15.2589 0.153123 15.5029 0.397041C15.7468 0.640958 15.8851 0.970919 15.8881 1.31586C15.8911 1.66079 15.7585 1.99311 15.5189 2.24123L2.36319 15.3969C2.24119 15.5193 2.09622 15.6163 1.9366 15.6825C1.77698 15.7486 1.60587 15.7826 1.43309 15.7824Z" fill="#BDB9B9"/>
<path d="M14.5893 15.7824C14.4165 15.7826 14.2454 15.7486 14.0857 15.6825C13.9261 15.6163 13.7811 15.5193 13.6591 15.3969L0.503452 2.24123C0.26381 1.99311 0.131208 1.66079 0.134205 1.31586C0.137202 0.970919 0.27556 0.640958 0.519477 0.397041C0.763394 0.153123 1.09336 0.0147659 1.43829 0.0117685C1.78323 0.00877106 2.11555 0.141374 2.36367 0.381015L15.5194 13.5367C15.7033 13.7207 15.8285 13.9551 15.8793 14.2102C15.93 14.4654 15.904 14.7299 15.8044 14.9702C15.7049 15.2106 15.5363 15.416 15.32 15.5606C15.1037 15.7051 14.8494 15.7823 14.5893 15.7824Z" fill="#BDB9B9"/>
</svg>
