<svg width="9" height="10" viewBox="0 0 9 10" fill="none" xmlns="http://www.w3.org/2000/svg">
<path d="M8.43248 0.431641H0.792903C0.666269 0.431641 0.544822 0.481946 0.455279 0.571489C0.365735 0.661033 0.31543 0.78248 0.31543 0.909114V2.14577C0.31543 2.39549 0.417132 2.64091 0.593797 2.81758L3.18027 5.40405V9.02616C3.18036 9.10751 3.20122 9.18749 3.24086 9.25853C3.2805 9.32956 3.33762 9.3893 3.4068 9.4321C3.47599 9.47489 3.55495 9.49931 3.63621 9.50306C3.71747 9.50681 3.79835 9.48975 3.87117 9.4535L5.78107 8.49856C5.94293 8.41739 6.04511 8.25218 6.04511 8.07122V5.40405L8.63159 2.81758C8.80825 2.64091 8.90995 2.39549 8.90995 2.14577V0.909114C8.90995 0.78248 8.85965 0.661033 8.7701 0.571489C8.68056 0.481946 8.55911 0.431641 8.43248 0.431641ZM5.23006 4.8688C5.18564 4.91307 5.15041 4.96568 5.1264 5.02362C5.10239 5.08155 5.09007 5.14366 5.09016 5.20638V7.77614L4.13522 8.25361V5.20638C4.13531 5.14366 4.12299 5.08155 4.09898 5.02362C4.07497 4.96568 4.03974 4.91307 3.99532 4.8688L1.27038 2.14577V1.38659H7.95548L7.95644 2.14243L5.23006 4.8688Z" fill="#919191"/>
</svg>
