<svg width="19" height="18" viewBox="0 0 19 18" fill="none" xmlns="http://www.w3.org/2000/svg">
<path d="M9.00359 0C8.45359 0 8.00359 0.45 8.00359 1V9C8.00359 9.55 8.45359 10 9.00359 10C9.55359 10 10.0036 9.55 10.0036 9V1C10.0036 0.45 9.55359 0 9.00359 0ZM14.1436 2.86C13.9597 3.04392 13.8555 3.29284 13.8536 3.55295C13.8517 3.81306 13.9523 4.06345 14.1336 4.25C15.2636 5.45 15.9636 7.05 16.0036 8.82C16.0936 12.65 12.9236 15.95 9.09359 15.99C8.16695 16.0045 7.24669 15.8343 6.3865 15.4894C5.52632 15.1445 4.74341 14.6317 4.08346 13.9811C3.4235 13.3304 2.8997 12.5549 2.54261 11.6997C2.18552 10.8445 2.00229 9.92676 2.00359 9C2.00359 7.16 2.71359 5.49 3.87359 4.24C4.24359 3.85 4.24359 3.24 3.86359 2.86C3.76962 2.76517 3.6575 2.69025 3.53391 2.63975C3.41033 2.58924 3.27783 2.56416 3.14434 2.56603C3.01085 2.5679 2.8791 2.59667 2.75698 2.65061C2.63486 2.70456 2.52487 2.78258 2.43359 2.88C0.932891 4.46958 0.0681605 6.55489 0.00359261 8.74C-0.136407 13.62 3.83359 17.84 8.71359 17.99C13.8136 18.15 18.0036 14.06 18.0036 8.99C18.0036 6.62 17.0836 4.48 15.5836 2.88C15.2036 2.47 14.5436 2.46 14.1436 2.86Z" fill="white"/>
</svg>
