<svg width="16" height="16" viewBox="0 0 19 16" fill="none" xmlns="http://www.w3.org/2000/svg">
<path d="M18.4023 5.51382L17.9351 4.69771C17.9141 4.66173 17.8797 4.63553 17.8394 4.62482C17.7992 4.6141 17.7563 4.61976 17.7202 4.64054L16.7208 5.22404L15.1772 0.962108C15.0957 0.707799 14.9355 0.48597 14.7198 0.328648C14.504 0.171326 14.2438 0.0866526 13.9767 0.0868534H5.43511C4.75107 0.0868534 4.14391 0.528423 3.93298 1.18092L2.4624 5.22602L1.46098 4.64251C1.42488 4.62173 1.38202 4.61608 1.34176 4.62679C1.3015 4.6375 1.26711 4.6637 1.24611 4.69968L0.778915 5.51382C0.735546 5.58873 0.761173 5.68336 0.836082 5.72672L2.02674 6.42062L1.74091 7.20914C1.71725 7.27222 1.70542 7.33924 1.70542 7.40627V14.2703C1.70542 14.5798 1.93804 14.8302 2.22387 14.8302H3.55647C3.79894 14.8302 4.00986 14.6468 4.06112 14.3906L4.21291 13.6474H14.9683L15.1201 14.3906C15.1733 14.6468 15.3823 14.8302 15.6247 14.8302H16.9573C17.2432 14.8302 17.4758 14.5798 17.4758 14.2703V7.40627C17.4758 7.33924 17.4639 7.27222 17.4403 7.20914L17.1544 6.42062L18.3431 5.72672C18.3789 5.70606 18.4052 5.67218 18.4162 5.63236C18.4273 5.59255 18.4223 5.54998 18.4023 5.51382ZM4.70179 9.60623C4.26613 9.60623 3.91327 9.25337 3.91327 8.81771C3.91327 8.38206 4.26613 8.0292 4.70179 8.0292C5.13744 8.0292 5.49031 8.38206 5.49031 8.81771C5.49031 9.25337 5.13744 9.60623 4.70179 9.60623ZM12.3504 11.0847C12.3504 11.1714 12.2794 11.2424 12.1927 11.2424H6.98849C6.90175 11.2424 6.83079 11.1714 6.83079 11.0847V9.42881C6.83079 9.34208 6.90175 9.27111 6.98849 9.27111H7.77701C7.86374 9.27111 7.93471 9.34208 7.93471 9.42881V10.1385H11.2465V9.42881C11.2465 9.34208 11.3174 9.27111 11.4042 9.27111H12.1927C12.2794 9.27111 12.3504 9.34208 12.3504 9.42881V11.0847ZM14.4794 9.60623C14.0437 9.60623 13.6909 9.25337 13.6909 8.81771C13.6909 8.38206 14.0437 8.0292 14.4794 8.0292C14.9151 8.0292 15.2679 8.38206 15.2679 8.81771C15.2679 9.25337 14.9151 9.60623 14.4794 9.60623ZM3.83442 5.6045L5.26755 1.66389L5.27741 1.63826L5.28529 1.61263C5.30698 1.54758 5.36611 1.50421 5.43511 1.50421H13.8644L15.3507 5.6045H3.83442Z" fill="#0CB0E2"/>
</svg>
