<svg width="26" height="19" viewBox="0 0 26 19" fill="none" xmlns="http://www.w3.org/2000/svg">
<path d="M13.2409 0C7.96311 0 3.74089 4.22222 3.74089 9.5C3.74089 14.7778 7.96311 19 13.2409 19C18.5187 19 22.7409 14.7778 22.7409 9.5C22.7409 4.22222 18.5187 0 13.2409 0ZM13.2409 16.8889C9.12422 16.8889 5.852 13.6167 5.852 9.5C5.852 5.38333 9.12422 2.11111 13.2409 2.11111C17.3576 2.11111 20.6298 5.38333 20.6298 9.5C20.6298 13.6167 17.3576 16.8889 13.2409 16.8889ZM22.2131 18.4722C24.5353 16.15 25.9076 12.9833 25.9076 9.5C25.9076 6.01667 24.5353 2.85 22.2131 0.527778L21.052 1.68889C23.0576 3.69444 24.3242 6.43889 24.3242 9.5C24.3242 12.5611 23.0576 15.3056 21.052 17.3111L22.2131 18.4722ZM5.42977 17.3111C3.42422 15.3056 2.15755 12.5611 2.15755 9.5C2.15755 6.43889 3.42422 3.69444 5.42977 1.68889L4.26866 0.527778C1.94644 2.85 0.574219 6.01667 0.574219 9.5C0.574219 12.9833 1.94644 16.15 4.26866 18.4722L5.42977 17.3111ZM10.602 4.22222V14.7778H12.7131V10.5556H14.8242C15.3841 10.5556 15.9211 10.3331 16.317 9.93723C16.7129 9.54132 16.9353 9.00435 16.9353 8.44444V6.33333C16.9353 5.77343 16.7129 5.23646 16.317 4.84055C15.9211 4.44464 15.3841 4.22222 14.8242 4.22222H10.602ZM12.7131 6.33333H14.8242V8.44444H12.7131V6.33333Z" fill="white"/>
</svg>
