<svg width="38" height="38" viewBox="0 0 38 38" fill="none" xmlns="http://www.w3.org/2000/svg">
<path d="M23.8636 20.5909V15.3182C23.8636 14.5932 23.2705 14 22.5455 14H13.3182C12.5932 14 12 14.5932 12 15.3182V20.5909C12 21.3159 12.5932 21.9091 13.3182 21.9091H22.5455C23.2705 21.9091 23.8636 21.3159 23.8636 20.5909ZM17.9318 19.9318C16.8377 19.9318 15.9545 19.0486 15.9545 17.9545C15.9545 16.8605 16.8377 15.9773 17.9318 15.9773C19.0259 15.9773 19.9091 16.8605 19.9091 17.9545C19.9091 19.0486 19.0259 19.9318 17.9318 19.9318ZM26.5 15.9773V23.2273C26.5 23.9523 25.9068 24.5455 25.1818 24.5455H13.9773V23.2273H25.1818V15.9773H26.5Z" fill="#979EA4"/>
</svg>
