<svg width="38" height="38" viewBox="0 0 38 38" fill="none" xmlns="http://www.w3.org/2000/svg">
<path d="M19.8448 17.9843C17.8379 17.4627 17.1925 16.9234 17.1925 16.0835C17.1925 15.1198 18.0855 14.4479 19.5796 14.4479C21.1532 14.4479 21.7367 15.1994 21.7898 16.3045H23.7436C23.6817 14.7839 22.7534 13.387 20.9057 12.9361V11H18.2534V12.9096C16.5383 13.2809 15.1591 14.3949 15.1591 16.1012C15.1591 18.1434 16.8477 19.1601 19.3143 19.7525C21.5246 20.2829 21.9666 21.0609 21.9666 21.8831C21.9666 22.4931 21.5334 23.4656 19.5796 23.4656C17.7583 23.4656 17.0422 22.6523 16.945 21.609H15C15.1061 23.5452 16.556 24.6326 18.2534 24.9951V26.9136H20.9057V25.0128C22.6297 24.6857 24 23.6866 24 21.8743C24 19.3635 21.8517 18.5059 19.8448 17.9843Z" fill="#979EA4"/>
</svg>
