<svg width="18" height="18" viewBox="0 0 25 21" fill="none" xmlns="http://www.w3.org/2000/svg">
<path d="M4.32417 2.22099C4.32417 1.71521 4.52509 1.23015 4.88273 0.872519C5.24036 0.514883 5.72542 0.313965 6.2312 0.313965H15.1306C15.6364 0.313965 16.1215 0.514883 16.4791 0.872519C16.8367 1.23015 17.0377 1.71521 17.0377 2.22099V2.85666H17.6733C18.5163 2.85666 19.3247 3.19152 19.9208 3.78758C20.5168 4.38364 20.8517 5.19207 20.8517 6.03503V12.3918C20.8517 12.8975 20.6508 13.3826 20.2931 13.7402C19.9355 14.0979 19.4504 14.2988 18.9447 14.2988H17.0377V16.2058C17.0377 16.7116 16.8367 17.1966 16.4791 17.5543C16.1215 17.9119 15.6364 18.1128 15.1306 18.1128H6.2312C5.72542 18.1128 5.24036 17.9119 4.88273 17.5543C4.52509 17.1966 4.32417 16.7116 4.32417 16.2058V14.2988H2.41715C1.91138 14.2988 1.42632 14.0979 1.06869 13.7402C0.71105 13.3826 0.510132 12.8975 0.510132 12.3918V6.03503C0.510132 5.19207 0.844995 4.38364 1.44105 3.78758C2.03711 3.19152 2.84555 2.85666 3.6885 2.85666H4.32417V2.22099ZM15.7663 2.22099C15.7663 2.0524 15.6993 1.89071 15.5801 1.7715C15.4609 1.65229 15.2992 1.58531 15.1306 1.58531H6.2312C6.0626 1.58531 5.90092 1.65229 5.78171 1.7715C5.6625 1.89071 5.59552 2.0524 5.59552 2.22099V2.85666H15.7663V2.22099ZM5.59552 11.1204V16.2058C5.59552 16.3744 5.6625 16.5361 5.78171 16.6553C5.90092 16.7745 6.0626 16.8415 6.2312 16.8415H15.1306C15.2992 16.8415 15.4609 16.7745 15.5801 16.6553C15.6993 16.5361 15.7663 16.3744 15.7663 16.2058V11.1204C15.7663 10.9518 15.6993 10.7901 15.5801 10.6709C15.4609 10.5517 15.2992 10.4847 15.1306 10.4847H6.2312C6.0626 10.4847 5.90092 10.5517 5.78171 10.6709C5.6625 10.7901 5.59552 10.9518 5.59552 11.1204Z" fill="#929292"/>
</svg>
