<svg width="19" height="12" viewBox="0 0 19 12" fill="none" xmlns="http://www.w3.org/2000/svg">
<path d="M9.27277 1.10889V4.41799M9.27277 11.0362H17.5455V1.10889H1V11.0362H9.27277ZM9.27277 11.0362V7.7271V11.0362Z" stroke="#979EA4" stroke-width="1.24092" stroke-linecap="round" stroke-linejoin="round"/>
<path d="M9.27174 7.7261C10.1855 7.7261 10.9263 6.98533 10.9263 6.07155C10.9263 5.15776 10.1855 4.41699 9.27174 4.41699C8.35796 4.41699 7.61719 5.15776 7.61719 6.07155C7.61719 6.98533 8.35796 7.7261 9.27174 7.7261Z" stroke="#979EA4" stroke-width="1.24092" stroke-linecap="round" stroke-linejoin="round"/>
<path d="M3.89547 6.07155C3.89547 6.98532 3.1547 7.7261 2.24092 7.7261H1V4.41699H2.24092C3.1547 4.41699 3.89547 5.15778 3.89547 6.07155Z" stroke="#979EA4" stroke-width="1.24092" stroke-linecap="round" stroke-linejoin="round"/>
<path d="M15 5.76344C15 6.67721 15.7408 7.41799 16.6546 7.41799H17.8955V4.10889H16.6546C15.7408 4.10889 15 4.84967 15 5.76344Z" stroke="#979EA4" stroke-width="1.24092" stroke-linecap="round" stroke-linejoin="round"/>
</svg>
