<svg width="16" height="16" viewBox="0 0 19 16" fill="none" xmlns="http://www.w3.org/2000/svg">
<path d="M9.87695 1.4585H1.87695C1.61174 1.4585 1.35738 1.56385 1.16985 1.75139C0.98231 1.93893 0.876953 2.19328 0.876953 2.4585V14.4585C0.876953 14.7237 0.98231 14.9781 1.16985 15.1656C1.35738 15.3531 1.61174 15.4585 1.87695 15.4585H11.877C12.1422 15.4585 12.3965 15.3531 12.5841 15.1656C12.7716 14.9781 12.877 14.7237 12.877 14.4585V4.4585L9.87695 1.4585Z" stroke="#0CB0E2"/>
<path d="M8.53688 7.2673L8.06903 6.79944L6.87782 7.99065L5.68661 6.79944L5.21875 7.2673L6.40996 8.45851L5.21875 9.64972L5.68661 10.1176L6.87782 8.92636L8.06903 10.1176L8.53688 9.64972L7.34567 8.45851L8.53688 7.2673Z" fill="#0CB0E2"/>
</svg>
