<svg width="18" height="18" viewBox="0 0 18 18" fill="none" xmlns="http://www.w3.org/2000/svg">
<path d="M5.60141 6.14117C4.11582 6.14117 2.69108 6.73132 1.64061 7.78179C0.590147 8.83226 0 10.257 0 11.7426C0 12.4782 0.144885 13.2066 0.426382 13.8862C0.707879 14.5657 1.12048 15.1832 1.64061 15.7034C2.69108 16.7538 4.11582 17.344 5.60141 17.344C6.337 17.344 7.06538 17.1991 7.74498 16.9176C8.42457 16.6361 9.04207 16.2235 9.56221 15.7034C10.0823 15.1832 10.4949 14.5657 10.7764 13.8862C11.0579 13.2066 11.2028 12.4782 11.2028 11.7426V10.3724L17.2351 8.72644V6.14117H7.7558V7.86469H6.03229V6.14117H5.60141ZM7.7558 0.108887V4.41766H6.03229V0.108887H7.7558ZM3.74864 4.65896C3.17126 4.79684 2.61974 5.00366 2.09407 5.27942L0.120646 2.59074L1.51669 1.57387L3.74864 4.65896ZM13.6674 2.59074L12.3403 4.41766H10.2118L12.2714 1.57387L13.6674 2.59074Z" fill="#979EA4"/>
</svg>
