<svg width="20" height="16" viewBox="0 0 20 16" fill="none" xmlns="http://www.w3.org/2000/svg">
<path d="M19.034 6.35641L18.5515 5.5136C18.5298 5.47645 18.4943 5.44938 18.4528 5.43832C18.4112 5.42726 18.3669 5.4331 18.3296 5.45456L17.2975 6.05715L15.7035 1.65583C15.6193 1.39321 15.4539 1.16412 15.2311 1.00166C15.0082 0.839189 14.7395 0.751746 14.4637 0.751953H5.64276C4.93635 0.751953 4.30934 1.20796 4.09151 1.8818L2.57283 6.05919L1.53867 5.4566C1.50138 5.43514 1.45712 5.4293 1.41554 5.44036C1.37397 5.45142 1.33846 5.47848 1.31677 5.51564L0.834293 6.35641C0.789506 6.43377 0.815971 6.53148 0.89333 6.57627L2.12293 7.29286L1.82774 8.10716C1.80332 8.17231 1.7911 8.24152 1.7911 8.31074V15.3993C1.7911 15.7189 2.03132 15.9774 2.32651 15.9774H3.70268C3.95308 15.9774 4.17091 15.7881 4.22384 15.5234L4.38059 14.756H15.4877L15.6445 15.5234C15.6994 15.7881 15.9152 15.9774 16.1656 15.9774H17.5418C17.837 15.9774 18.0772 15.7189 18.0772 15.3993V8.31074C18.0772 8.24152 18.065 8.17231 18.0406 8.10716L17.7454 7.29286L18.9729 6.57627C19.0099 6.55493 19.037 6.51994 19.0484 6.47882C19.0598 6.43771 19.0547 6.39375 19.034 6.35641ZM4.88546 10.5826C4.43556 10.5826 4.07115 10.2182 4.07115 9.76834C4.07115 9.31844 4.43556 8.95404 4.88546 8.95404C5.33536 8.95404 5.69976 9.31844 5.69976 9.76834C5.69976 10.2182 5.33536 10.5826 4.88546 10.5826ZM12.7842 12.1095C12.7842 12.199 12.7109 12.2723 12.6214 12.2723H7.24694C7.15737 12.2723 7.08408 12.199 7.08408 12.1095V10.3994C7.08408 10.3099 7.15737 10.2366 7.24694 10.2366H8.06125C8.15082 10.2366 8.22411 10.3099 8.22411 10.3994V11.1323H11.6442V10.3994C11.6442 10.3099 11.7175 10.2366 11.8071 10.2366H12.6214C12.7109 10.2366 12.7842 10.3099 12.7842 10.3994V12.1095ZM14.9828 10.5826C14.5329 10.5826 14.1685 10.2182 14.1685 9.76834C14.1685 9.31844 14.5329 8.95404 14.9828 8.95404C15.4327 8.95404 15.7971 9.31844 15.7971 9.76834C15.7971 10.2182 15.4327 10.5826 14.9828 10.5826ZM3.98972 6.45005L5.46972 2.38056L5.4799 2.3541L5.48804 2.32763C5.51044 2.26045 5.57151 2.21567 5.64276 2.21567H14.3477L15.8826 6.45005H3.98972Z" fill="#28A8E0"/>
</svg>
