<svg width="18" height="18" viewBox="0 0 25 25" fill="none" xmlns="http://www.w3.org/2000/svg">
<g clip-path="url(#clip0_2663_3054)">
<path d="M21.0808 11.1678C20.2878 9.11656 18.9111 7.34262 17.1209 6.06526C15.3307 4.7879 13.2054 4.06311 11.0078 3.98047C8.81009 4.06311 6.68481 4.7879 4.89459 6.06526C3.10437 7.34262 1.72768 9.11656 0.934668 11.1678C0.881112 11.316 0.881112 11.4782 0.934668 11.6263C1.72768 13.6776 3.10437 15.4515 4.89459 16.7289C6.68481 18.0062 8.81009 18.731 11.0078 18.8137C13.2054 18.731 15.3307 18.0062 17.1209 16.7289C18.9111 15.4515 20.2878 13.6776 21.0808 11.6263C21.1344 11.4782 21.1344 11.316 21.0808 11.1678ZM11.0078 17.4652C7.4343 17.4652 3.65858 14.8154 2.28988 11.3971C3.65858 7.97869 7.4343 5.32894 11.0078 5.32894C14.5812 5.32894 18.3569 7.97869 19.7256 11.3971C18.3569 14.8154 14.5812 17.4652 11.0078 17.4652Z" fill="#929292"/>
<path d="M11.0077 7.35156C10.2076 7.35156 9.42542 7.58882 8.76015 8.03334C8.09489 8.47785 7.57638 9.10966 7.27019 9.84886C6.964 10.5881 6.88389 11.4015 7.03998 12.1862C7.19608 12.9709 7.58136 13.6918 8.14713 14.2575C8.71289 14.8233 9.43371 15.2086 10.2184 15.3647C11.0032 15.5208 11.8166 15.4406 12.5558 15.1345C13.295 14.8283 13.9268 14.3098 14.3713 13.6445C14.8158 12.9792 15.0531 12.1971 15.0531 11.397C15.0531 10.3241 14.6269 9.2951 13.8682 8.53644C13.1095 7.77777 12.0806 7.35156 11.0077 7.35156ZM11.0077 14.0939C10.4743 14.0939 9.95284 13.9357 9.50933 13.6394C9.06582 13.3431 8.72014 12.9219 8.51602 12.4291C8.31189 11.9363 8.25848 11.394 8.36254 10.8708C8.46661 10.3477 8.72347 9.86712 9.10064 9.48995C9.47781 9.11278 9.95836 8.85592 10.4815 8.75185C11.0047 8.64779 11.5469 8.7012 12.0397 8.90533C12.5325 9.10945 12.9537 9.45513 13.2501 9.89864C13.5464 10.3421 13.7046 10.8636 13.7046 11.397C13.7046 12.1123 13.4205 12.7982 12.9147 13.304C12.4089 13.8098 11.7229 14.0939 11.0077 14.0939Z" fill="#929292"/>
</g>
<defs>
<clipPath id="clip0_2663_3054">
<rect width="21.5755" height="21.5755" fill="white" transform="translate(0.219879 0.609375)"/>
</clipPath>
</defs>
</svg>
